<svg xmlns="http://www.w3.org/2000/svg" viewBox="0 0 71.51 4.72"><defs><style>.cls-1{fill:#fff;}</style></defs><g id="Layer_2" data-name="Layer 2"><g id="Layer_3" data-name="Layer 3"><path class="cls-1" d="M.72,5.48H.08L1.74.93h.69L4.1,5.48H3.45L3,4.35H1.12ZM2,1.91l-.69,1.9H2.86l-.7-1.9-.05-.14a.35.35,0,0,1,0-.12,1,1,0,0,0,0,.12A.78.78,0,0,1,2,1.91Z" transform="translate(-0.08 -0.84)"/><path class="cls-1" d="M10.36,5.48H9.75V.93h.61l2.51,3.78H12.7V.93h.61V5.48H12.7L10.19,1.7h.17Z" transform="translate(-0.08 -0.84)"/><path class="cls-1" d="M19.6,5.48H19L20.62.93h.69L23,5.48h-.65l-.41-1.13H20Zm1.29-3.57-.69,1.9h1.54L21,1.91s0-.09,0-.14a.35.35,0,0,1,0-.12s0,.07,0,.12A.74.74,0,0,1,20.89,1.91Z" transform="translate(-0.08 -0.84)"/><path class="cls-1" d="M29.25.93V5.48h-.62V.93Zm-.51,4.55V4.91h2.51v.57Z" transform="translate(-0.08 -0.84)"/><path class="cls-1" d="M37.58.93V5.48H37V.93Z" transform="translate(-0.08 -0.84)"/><path class="cls-1" d="M43.25,1.49V.93h3.36v.56Zm2-.28V5.48h-.62V1.21Z" transform="translate(-0.08 -0.84)"/><path class="cls-1" d="M52.89.93V5.48h-.61V.93Z" transform="translate(-0.08 -0.84)"/><path class="cls-1" d="M60.89,5.55a2.09,2.09,0,0,1-1.13-.29A2,2,0,0,1,59,4.44a2.65,2.65,0,0,1-.27-1.23A2.61,2.61,0,0,1,59,2a2,2,0,0,1,.77-.82,2.16,2.16,0,0,1,1.14-.3,2.35,2.35,0,0,1,.94.19,1.93,1.93,0,0,1,.69.54,1.86,1.86,0,0,1,.36.82h-.66a1.24,1.24,0,0,0-.49-.7,1.44,1.44,0,0,0-.86-.26,1.52,1.52,0,0,0-.8.22,1.43,1.43,0,0,0-.53.61,2.06,2.06,0,0,0-.19.93,2.09,2.09,0,0,0,.19.93,1.38,1.38,0,0,0,.53.61,1.46,1.46,0,0,0,.8.22,1.52,1.52,0,0,0,.88-.25A1.19,1.19,0,0,0,62.27,4h.66a1.72,1.72,0,0,1-.38.79,1.83,1.83,0,0,1-.72.53A2.19,2.19,0,0,1,60.89,5.55Z" transform="translate(-0.08 -0.84)"/><path class="cls-1" d="M68.46,2.16A1.23,1.23,0,0,1,69.21,1,1.94,1.94,0,0,1,70,.84a1.77,1.77,0,0,1,.76.16,1.16,1.16,0,0,1,.51.44,1.24,1.24,0,0,1,.21.68h-.62a.72.72,0,0,0-.25-.53A.91.91,0,0,0,70,1.4a1.11,1.11,0,0,0-.69.2.65.65,0,0,0-.26.54.6.6,0,0,0,.16.44.9.9,0,0,0,.48.24l.75.18a1.6,1.6,0,0,1,.84.43,1.12,1.12,0,0,1,.28.79,1.28,1.28,0,0,1-.2.71,1.3,1.3,0,0,1-.56.47,2.18,2.18,0,0,1-.85.16,2.09,2.09,0,0,1-.81-.15A1.35,1.35,0,0,1,68.62,5a1.33,1.33,0,0,1-.22-.67H69a.62.62,0,0,0,.26.52A1.15,1.15,0,0,0,70,5a1.12,1.12,0,0,0,.72-.2A.62.62,0,0,0,71,4.27a.63.63,0,0,0-.15-.44.84.84,0,0,0-.48-.25l-.75-.17A1.54,1.54,0,0,1,68.75,3,1.2,1.2,0,0,1,68.46,2.16Z" transform="translate(-0.08 -0.84)"/></g></g></svg>