<svg xmlns="http://www.w3.org/2000/svg" viewBox="0 0 93.9 43.46"><defs><style>.cls-1{fill:#fff;}.cls-2{fill:#006fff;}</style></defs><g id="Layer_2" data-name="Layer 2"><g id="Layer_6" data-name="Layer 6"><polygon class="cls-1" points="82.47 28.79 93.9 42.8 83.55 42.8 77.96 35.52 77.21 34.54 70.87 42.8 60.52 42.8 60.91 42.32 68.98 32.43 70.18 30.96 71.95 28.79 71.95 28.34 70.44 26.47 69.06 24.76 69.06 24.75 61.09 14.87 60.52 14.16 70.98 14.16 77.21 22.08 77.97 21.11 83.44 14.16 93.9 14.16 82.47 28.34 82.47 28.79"/><path class="cls-1" d="M69.27,27.48c0-.19,0-.38,0-.57L59,14.21a22,22,0,0,0-5.36-.62c-4.88,0-9,1.54-11.76,4.3A14.41,14.41,0,0,0,37.77,28.5c0,4.89,1.51,8.52,4.13,11,2.84,2.65,7,3.91,11.93,3.91a24.59,24.59,0,0,0,5.09-.51l8.73-10.7H60.41v.57c0,2.46-1.77,3.78-6.86,3.78-5.55,0-7.6-1.89-7.83-6.29H69A22.16,22.16,0,0,0,69.27,27.48ZM45.83,25.7c.4-3.71,2.57-5.43,7.66-5.43S60.81,21.93,61,25.7Z"/><path class="cls-2" d="M41.9,16.29V0H32.17V21l.46,8.76h-.72l-6-9.15L10.37,0H0V43.46H9.73V22.51l-.39-8H10l5.51,8.18,16,20.75H41.9V41.05c-3.47-2.73-5.33-7-5.33-12.55A15.44,15.44,0,0,1,41.9,16.29Z"/></g></g></svg>