<svg xmlns="http://www.w3.org/2000/svg" viewBox="0 0 82.06 28.64"><defs><style>.cls-1{fill:#006fff;}.cls-2{fill:#fff;}</style></defs><g id="Layer_2" data-name="Layer 2"><g id="Layer_4" data-name="Layer 4"><path class="cls-1" d="M82.06,6.47V28.64H11.62L0,14.4,11.61,0H74.89C78.86,0,82.06,2.9,82.06,6.47Z"/><g id="Layer_2-2" data-name="Layer 2"><path class="cls-2" d="M24.76,5.18c-6,0-10,3.54-10,9.15s4,9.13,10,9.13,10.05-3.58,10.05-9.13S30.77,5.18,24.76,5.18Zm0,13.62c-3.57,0-4.8-1.38-4.8-4.47s1.23-4.52,4.8-4.52,4.81,1.44,4.81,4.52S28.31,18.8,24.76,18.8Z"/><path class="cls-2" d="M47.85,5.18a5.59,5.59,0,0,0-5.9,5h-.32V5.53H36.76V23.11H42V12.93c0-2.21.84-3.29,3.19-3.29,2.14,0,2.91.84,2.91,2.77v1.82H53.4V11.32C53.4,7.88,51.78,5.18,47.85,5.18Z"/><path class="cls-2" d="M64.75,5.18c-5.8,0-9.45,3-9.45,7.37v.1h5.3v-.14c0-2,1.1-2.7,3.77-2.7s3.81.63,3.81,2.91v.67l-7.54.78c-3.75.38-5.68,2-5.68,4.59,0,2.95,2.27,4.7,6.06,4.7s6.36-1.65,7.16-4.38h.28v4h4.92V12.79C73.38,8.19,70.61,5.18,64.75,5.18ZM62.54,19.74c-1.54,0-2.28-.38-2.28-1.33s.56-1.19,1.82-1.3l6.1-.7C68,18.9,66.11,19.74,62.54,19.74Z"/></g></g></g></svg>